<?xml version="1.0" encoding="UTF-8"?>
<svg id="Layer_1" data-name="Layer 1" xmlns="http://www.w3.org/2000/svg" viewBox="0 0 382.38 255.14">
  <path d="M.09,140.03c0-21.87,.09-43.74-.09-65.61-.03-3.69,1.34-3.91,4.57-4.66,7.58-1.77,15.45-.01,22.67-1.78,10.69-2.62,21.34-3.02,32.16-3.36,4.66-.15,9.26-2.07,13.91-3.11,1.08-.24,2.23-.17,3.35-.22,11.53-.58,23.37,.27,34.53-2.08,15.05-3.16,30.02-2.81,45.1-2.89,2.97-.02,3.5-1.25,3.49-3.83-.08-13.87,.04-27.74-.08-41.61-.03-3.54,1.54-6.25,3.47-8.86,.63-.86,1.77-1.35,2.67-2,.71,1.19,1.66,2.3,2.1,3.59,3.38,9.74,1.13,19.82,1.62,29.73,.32,6.61,.14,13.25,.02,19.87-.04,2.28,.77,3.09,3.01,3.08,14.1-.05,28.19-.08,42.29,.02,2.89,.02,3.16-1.44,3.15-3.74-.06-13.75,.01-27.49-.06-41.24-.01-2.57,.11-4.91,2.46-6.52,.38-.26,.71-.66,.95-1.06,.51-.83,.95-1.7,1.41-2.56,1.05,.77,2.62,1.32,3.04,2.35,1.01,2.48,2.04,5.18,2.07,7.8,.2,13.62,.21,27.24,0,40.86-.05,3.44,1.1,4.27,4.27,4.14,4.98-.22,9.99-.27,14.96,0,7.32,.39,14.88,.15,21.86,2,5.85,1.54,11.61,.07,17.11,1.41,7.41,1.81,15,.5,22.2,1.95,4.08,.82,8.39,.4,12.07,1.72,6.85,2.47,13.72,.49,20.47,1.47,5.04,.73,9.97,2.13,14.96,3.2,.84,.18,1.73,.25,2.6,.23,7.36-.18,14.72-.21,21.89,1.78,.78,.22,1.55,1.2,1.91,2.01,.32,.73,.09,1.72,.09,2.59,0,43.74,0,87.48,0,131.22,0,5.23-.41,4.65-5.17,6.58-5.02,2.04-9.92,.98-14.85,1.35-9.18,.68-18.41,.92-27.56,1.87-4.53,.47-8.93,2.16-13.41,3.24-.83,.2-1.74,.07-2.61,.12-8.31,.55-16.63,1.03-24.92,1.76-.82,.07-2.1,1.6-2.16,2.52-.25,3.86-.11,7.74-.11,11.62,0,4.03-2.91,8.45-6.79,9.75-2.69,.9-5.53,1.31-8.31,1.96-4.5,1.04-8.99,2.09-13.48,3.13-.24,.06-.49,.07-.74,.09-7.56,.62-15.15,1.03-22.67,1.92-6.5,.77-12.93,2.11-19.4,3.16-.98,.16-1.99,.13-2.98,.13-16.72,0-33.43,.13-50.15-.07-5.31-.06-11,.03-15.81-1.81-5.68-2.17-11.2-.64-16.69-1.54-5.07-.83-10.03-2.4-15.1-3.14-3.55-.52-7.22-.14-10.83-.25-7.87-.24-16.76-7.14-15.83-16.05,.27-2.6-.11-5.26,.08-7.87,.2-2.69-.6-3.66-3.49-3.76-8.45-.31-16.89-.93-25.31-1.6-4.08-.33-8.51-.19-12.1-1.79-6.53-2.9-13.35-.17-19.59-1.89-7.25-1.99-14.43-.97-21.62-1.56-2.59-.21-5.24-.76-7.68-1.66-2.23-.82-3.01-2.81-2.99-5.35,.1-16,.05-31.99,.05-47.99,0-6.25,0-12.5,0-18.75Zm157.86-63.2c.49-.01,1.05,.11,1.47-.07,.66-.28,1.24-.76,1.85-1.15-.74-.29-1.54-.9-2.2-.77-.57,.11-.98,1.06-1.46,1.64-1.07,.31-2.13,.62-3.2,.94,.3,.32,.75,.96,.88,.9,.92-.41,1.78-.96,2.66-1.47Zm76.74,6.75c.46,.53,.92,1.06,1.38,1.6,.24-.23,.47-.47,.71-.7l-1.68-1.32c-2.71-1.14-5.41-3.16-8.13-3.21-4.49-.07-9.01,1.13-13.51,1.85-.4,.07-.83,.52-1.08,.91-.45,.7-.78,1.48-1.16,2.23,.95,.04,1.93,.27,2.83,.09,1.81-.36,3.56-1.29,5.36-1.36,5.09-.2,10.19-.09,15.28-.1Zm-37.43,52.97c-27.2,0-54.4,0-81.6,0-3.88,0-5.19-1.59-3.94-5.23,.81-2.36,2.87-2.91,5.32-2.91,23.21,.06,46.41,0,69.62,.09,3.02,.01,4.12-.78,4.1-3.97-.12-19.87-.11-39.75,0-59.62,.02-3-.73-4.29-3.95-4.11-4.35,.24-8.73-.03-13.1,.11-1.33,.04-3.77,.71-3.77,1.09,0,1.66,.53,3.41,1.21,4.97,1.19,2.75,4.31,3.51,6.18,5.96,3.2,4.2,3.73,8.8,4.16,13.41,.55,5.82,.46,11.76,0,17.6-.27,3.54-.89,7.31-3.82,10.04-.57,.53-.72,1.52-1.28,2.08-2.32,2.31-4.64,6.26-7.12,6.4-3.87,.21-9.48,3.5-12-2.96-.03-.07-.28-.02-.35-.1-1.92-2.13-4.81-3.98-5.53-6.47-1.77-6.09-2.8-12.43-3.63-18.73-.76-5.76,.21-11.36,3.17-16.55,.62-1.09,.2-3.54,.81-3.75,3.87-1.29,4.13-5.76,7.19-7.77,.78-.51,.82-2.8,.48-4.08-.16-.63-1.97-1.14-3.04-1.15-6.49-.1-12.97-.06-19.46-.05-.75,0-1.51,0-2.24,.13-6.48,1.13-12.93,2.52-19.44,3.39-7.63,1.01-15.41-1.26-23.09,1.5-4.01,1.44-8.58,1.42-12.93,1.79-8.64,.74-17.3,1.25-25.94,2.04-.72,.07-1.86,1.51-1.88,2.34-.28,12.55,.25,25.1-1.72,37.62-1.51,9.57,1.61,19.47-1.74,29.1-.7,2,1.38,4.82,1.5,7.29,.45,9.8,.42,19.56,1.59,29.39,1.27,10.6,.24,21.46,.36,32.21,.01,1.08,.75,2.87,1.52,3.1,4.55,1.34,9.15,2.8,13.84,3.32,6.77,.75,13.56,0,20.42,1.78,6.77,1.75,14.08-.7,21.21,1.67,4.22,1.4,9.13,1.04,13.67,1.5,11.55,1.17,23.22,.67,34.89,1.89,13.21,1.38,26.68,.69,40.01,.21,13.12-.47,26.22,1.4,39.41-1.49,9.86-2.15,20.38,1.31,30.49-1.79,3.64-1.12,7.65-1.81,11.43-1.59,10.9,.63,21.58-1.35,32.35-2.08,4.81-.33,9.61-1.05,14.38-1.77,1.74-.26,3.45-.92,5.06-1.65,.61-.28,1.17-1.25,1.26-1.97,.65-4.82,1.41-9.65,1.69-14.5,1.03-17.93-1.73-35.95,1.51-53.86,.54-2.99-1.34-6.34-1.39-9.53-.19-11.75,.13-23.5-.15-35.24-.19-7.97-1-15.92-1.69-23.87-.07-.77-1.17-2.01-1.89-2.08-8.02-.78-16.05-1.37-24.09-1.99-1.24-.1-2.51,.04-3.73-.14-6.9-1.01-13.78-2.17-20.69-3.11-6.12-.84-12.23,.74-18.55-1.53-4.94-1.77-10.78-.4-16.3-1.83-4.68-1.21-9.92-.35-14.9-.17-1.05,.04-3,1.19-2.94,1.59,.28,1.94-1.75,4.63,1.51,5.75,4.7,1.62,6.48,6.29,8.23,9.9,1.99,4.11,1.95,9.44,1.96,14.23,0,8.5,.91,16.8-4.71,24.88-5.09,7.3-13.9,10.1-19.88,3.57-1.27-1.39-1.89-3.39-3.17-4.77-4.66-5.01-5.57-11.4-5.97-17.65-.32-4.88-.29-9.78,1.24-14.89,1.14-3.8,3.3-6.76,4.74-10.2,.67-1.6,1.41-3.12,3.69-3.95,2.73-.99,2.72-4.36,1.94-6.82-.29-.92-2.65-1.59-4.11-1.65-4.61-.21-9.24,.15-13.84-.15-3.64-.24-4.65,1.02-4.62,4.62,.16,19.5,.16,39,0,58.49-.03,3.61,1.02,4.64,4.63,4.62,26.32-.14,52.65,0,78.98-.16,3.49-.02,4.05,1.22,4.08,4.31,.03,3.14-.93,3.96-4.02,3.95-27.2-.12-54.4-.07-81.6-.07Zm-188.91,3.54c0,9.74,0,19.48,0,29.22,0,11.61,.04,23.23-.02,34.84-.01,2.31,.56,3.44,3.15,3.26,2.98-.21,6-.27,8.97,0,4.18,.4,8.32,1.19,12.49,1.76,2.35,.32,3.6-.67,3.25-3.15-.55-3.91-1.53-7.8-1.7-11.73-.65-14.81-.27-29.6-1.27-44.46-1.16-17.2,.68-34.6,1.19-51.92,.09-3.12,0-6.24,.02-9.37,0-.75-.23-1.78,.16-2.19,2.9-3.11,1.17-6.87,1.6-10.31,.3-2.41-.81-3.25-3.24-3.21-6.6,.13-13.22,.25-19.82-.04-3.71-.17-4.9,.83-4.86,4.72,.2,20.85,.09,41.71,.09,62.56Zm365.87,.02c0-21.12-.04-42.23,.05-63.34,.01-2.8-.6-4.04-3.7-3.94-6.85,.21-13.72,.21-20.57,0-3.06-.09-4.1,1.06-3.67,3.9,.5,3.34,1.24,6.65,1.5,10.01,.53,6.94,1.2,13.91,1.65,20.79,1.11,17.04,.61,34.22,.25,51.32-.15,7.54,.81,15.02-1.4,22.74-2.11,7.38-1.37,15.57-2.05,23.38-.29,3.25,.75,4.8,4.09,4.21,3.05-.54,6.05-1.48,9.11-1.74,3.59-.31,7.24-.27,10.84-.01,3.13,.22,3.99-.86,3.97-3.97-.13-21.11-.07-42.23-.07-63.34Zm-29.18-28.06c0-3.87,.16-7.75-.03-11.61-.45-8.96-1.01-17.91-1.72-26.84-.07-.83-1.53-2.1-2.45-2.21-4.64-.56-4.88-.27-4.87,4.37,.02,11.05,.11,22.05,1.64,33.09,1.1,7.96,.56,16.22,.14,24.32-.83,16.29,1.64,32.59-1.49,48.94-1.62,8.43-.25,17.43-.31,26.17-.02,2.23,1.11,2.92,3.03,2.65,1.63-.23,4.15,1.08,4.36-1.98,.39-5.46,.86-10.91,1.41-16.34,1.69-16.71-1.36-33.64,1.76-50.42,.62-3.34-1.25-7.07-1.39-10.64-.25-6.48-.07-12.98-.07-19.48ZM44.81,137.82c1.35-11.3-1.75-25.29,1.42-39.23,1.63-7.17,1.57-14.74,1.97-22.15,.28-5.21,.04-5.22-5.27-5.16-.5,0-1.16-.19-1.47,.05-.8,.63-2.05,1.45-2.07,2.21-.29,11.8-1.27,23.62-1.49,35.35-.4,21.11-1.95,42.29,1.09,63.49,1.65,11.51,.43,23.45,.22,35.19-.06,3.5,1.75,3.48,4.17,3.4,2.43-.09,5.26,.68,4.88-3.48-.39-4.2-.32-8.27-1.52-12.57-1.77-6.36-1.72-13.31-1.87-20.01-.26-11.49-.07-22.99-.07-37.08Zm143.9,88.06c-1.62,0-3.25-.11-4.86,.05-.7,.07-1.34,.69-2.01,1.06,.55,.39,1.07,.82,1.65,1.16,4.59,2.65,9.21,5.27,13.79,7.94,3.13,1.82,6.2,3.74,9.32,5.58,.29,.17,.78-.01,1.1,.14,1.55,.73,3.21,1.31,4.57,2.31,3.42,2.52,5.9,6.64,11.41,4.65,2.32-.84,5.19-.19,7.81-.15,2.44,.03,2.5-1.8,1.73-3-1.01-1.59-2.55-3.17-4.23-3.97-5.73-2.69-11.62-5.04-17.45-7.51-1.83-.77-3.97-1.14-5.47-2.32-5.13-4.06-10.86-6-17.34-5.93Zm-.75,26.32c1.9,0,3.53,.08,5.14-.03,.79-.06,1.55-.48,2.32-.74-.49-.77-.8-1.81-1.49-2.27-3.11-2.08-6.15-4.36-9.53-5.9-7.1-3.22-13.73-7.33-19.15-12.72-4.88-4.85-10.29-4.88-16.16-4.57-.47,.03-1.33,1.61-1.25,1.69,1.98,1.93,3.8,4.25,6.17,5.5,6.74,3.58,13.42,7.33,18.77,12.75,4.42,4.49,9.33,6.58,15.18,6.28Zm19.06-1.86c2.96,0,5.45,.05,7.93-.05,.4-.02,.78-.7,1.17-1.08-.34-.29-.63-.66-1.02-.86-4.16-2.08-8.36-4.09-12.49-6.22-3.87-1.99-7.7-4.05-11.5-6.17-2.77-1.54-5.93-2.76-8.09-4.94-4.11-4.17-8.79-5.8-14.43-5.14-1.29,.15-2.56,.47-3.84,.71,.85,1.09,1.48,2.51,2.58,3.22,6.29,4.08,12.66,8.02,19.06,11.92,1.79,1.09,4,1.57,5.63,2.83,4.6,3.53,8.99,7.39,14.99,5.78Zm-38.99,.07c1.12,0,2.26,.1,3.36-.04,.65-.09,1.26-.56,1.89-.86-.42-.54-.75-1.24-1.29-1.6-2.54-1.67-5.14-3.24-7.71-4.86-2.08-1.32-4.25-2.55-6.19-4.06-1.59-1.23-2.78-2.97-4.37-4.2-3.93-3.04-8.22-5.66-11.93-8.94-2.82-2.49-5.8-1.26-8.73-1.41-.32-.02-1.2,1.59-1,1.9,1.93,2.93,3.5,6.55,6.23,8.4,4.74,3.2,9.07,6.97,14.03,9.97,5.06,3.05,10.24,4.5,15.71,5.71Zm87.64-26.14c-1.74,0-3.52-.18-5.22,.06-1.24,.18-2.4,.92-3.6,1.42,.81,1.28,1.33,3.22,2.48,3.72,4.75,2.07,9.56,4.34,14.59,5.32,5.85,1.14,11.16,2.97,15.89,6.54,.28,.21,.65,.33,.99,.42,3.18,.84,6.26-1.56,7.41-6.18,.83-3.34-1.92-2.65-3.74-2.96-.44-.08-.8-.55-1.24-.72-2.2-.83-4.37-1.78-6.64-2.39-3.23-.87-7.43-.47-9.59-2.42-3.62-3.26-7.39-2.65-11.33-2.8Zm-19.58,1.6c-2.8,0-4.67-.1-6.53,.04-1,.08-1.96,.58-2.94,.9,.85,.45,1.69,.95,2.57,1.34,.65,.29,1.46,.29,2.03,.67,5.22,3.45,10.74,6.54,15.49,10.55,4.9,4.14,10.78,4.99,16.46,5.73,4.37,.57,9.02-1.03,13.54-1.75,.42-.07,.75-.74,1.12-1.13-.52-.24-1.02-.58-1.57-.71-1.71-.42-3.89-.23-5.05-1.24-1.99-1.74-3.89-2.6-6.53-2.47-1.32,.07-2.71-.63-4.02-1.12-1.64-.61-3.24-1.34-4.84-2.07-2.78-1.27-6.35-1.9-8.14-4.02-3.51-4.16-7.41-5.67-11.6-4.73Zm-23.34,0v.04c-2.37,0-4.74-.05-7.1,.04-.49,.02-.96,.57-1.43,.87,.36,.42,.65,1.07,1.1,1.23,2.26,.76,5.38,.68,6.7,2.2,3.55,4.08,8.8,4.04,12.89,6.48,3.54,2.11,7.22,4.61,9.59,7.86,2.13,2.92,4.33,4.21,7.53,3.94,2.47-.21,4.9-.96,7.3-1.65,.41-.12,.95-1.5,.79-1.68-1.25-1.31-2.54-2.66-4.05-3.63-5.67-3.61-11.43-7.1-17.18-10.58-2.86-1.73-5.75-3.4-8.68-5.01-.49-.27-1.23-.11-1.85-.11-1.87-.01-3.74,0-5.61,0Zm-86.51,21.13c1.53,0,2.58,.19,3.51-.06,.91-.24,1.7-.94,2.54-1.43-.65-.81-1.21-1.72-1.97-2.41-.94-.86-2.14-1.46-3.06-2.34-1.85-1.75-3.28-4.28-5.44-5.29-5.11-2.38-7.64-6.2-8.52-11.54-.09-.53-1.2-1.23-1.88-1.28-2.23-.16-4.48-.15-6.71,.01-.53,.04-1.47,.96-1.42,1.38,.24,1.85,.61,3.72,1.25,5.46,.67,1.85,1.27,4.08,2.66,5.25,3.9,3.3,8.41,5.9,12.25,9.26,2.25,1.96,4.18,3.7,6.79,2.99Zm-3.43-22.72s0,0,0,.01c-1.5,0-3.07-.28-4.46,.11-.77,.21-1.92,1.92-1.71,2.29,1.27,2.26,2.43,5.48,4.45,6.25,5.59,2.15,9.35,6.23,13.06,10.42,4.14,4.67,9.26,5.86,15.1,5.22,.55-.06,1.07-.4,1.61-.61-.25-.49-.39-1.11-.78-1.44-.81-.68-1.77-1.17-2.63-1.8-2.45-1.78-6.54-1.66-6.87-5.95-.02-.31-.73-.53-1.06-.85-2.4-2.36-4.66-4.88-7.23-7.04-2.04-1.72-4.21-3.15-4.02-6.26,0-.08-1.12-.31-1.72-.34-1.24-.05-2.49-.02-3.74-.02ZM166.68,34.28c0-8.98,.03-17.97-.05-26.95,0-.95-.68-1.9-1.04-2.85-.88,.76-1.91,1.42-2.58,2.34-.37,.5-.18,1.45-.18,2.19,0,17.47-.04,34.94,.07,52.4,0,1.11,.97,3.05,1.71,3.17,2.61,.41,2.04-1.88,2.05-3.35,.05-8.98,.03-17.97,.03-26.95Zm58.32,1.79c0-8.99,.03-17.99-.04-26.98,0-.97-.63-1.94-.97-2.92-.91,.89-1.92,1.7-2.69,2.7-.31,.4-.13,1.21-.13,1.83,0,17.49-.04,34.97,.08,52.46,0,1.07,1.19,2.13,1.82,3.2,.64-1.1,1.82-2.2,1.84-3.32,.15-8.99,.08-17.98,.09-26.98Zm-58.22,54.97c-4.67,.96-8.9,1.65-13.02,2.78-1.15,.32-2.07,1.83-2.83,2.97-.27,.41,.27,1.35,.43,2.05,1.2-.29,2.39-.64,3.6-.86,1.21-.22,2.45-.25,3.65-.5,2.3-.48,4.57-1.13,6.88-1.55,.74-.13,1.6,.18,2.36,.42,.99,.31,1.92,.85,2.93,1.11,2.17,.58,4.36,1.11,6.57,1.52,.79,.15,2.08,.16,2.39-.28,.47-.68,.68-2.05,.28-2.71-.58-.96-1.67-1.9-2.73-2.23-3.5-1.07-7.08-1.86-10.51-2.73Zm58.01,14.32c3.11,.73,6.19,1.77,9.34,2.06,1.37,.13,2.88-1.28,4.33-1.99-.88-1.07-1.56-2.67-2.68-3.09-2.43-.92-5.1-1.79-7.64-1.7-5.43,.19-10.84,.94-16.24,1.65-.78,.1-2.07,1.24-2.03,1.83,.1,1.61,.75,3.2,1.3,4.75,.05,.14,1.16,.17,1.5-.1,3.57-2.81,7.67-3.2,12.12-3.42Zm13.91-7.95c-.17-.3-.49-1.64-1.22-1.93-3.45-1.36-6.98-2.6-10.57-3.52-1.6-.41-3.5-.22-5.14,.19-3.49,.88-6.9,2.04-10.32,3.18-.8,.27-2.05,.81-2.12,1.35-.17,1.26,.25,2.6,.43,3.91,1.04-.17,2.15-.16,3.11-.55,1.74-.71,3.37-2.34,5.07-2.37,5.86-.1,11.96-1.51,17.27,2.71,1.84,1.46,3.46,.25,3.49-2.98ZM97.66,230.34s-.02,0-.03,0c0,1.62,0,3.24,0,4.85,0,5.32,2.51,7.94,7.79,8.27,2.97,.18,6.18-.92,8.77,1.66,.3,.3,1.5-.32,2.29-.52-.47-.51-.85-1.22-1.44-1.5-5.15-2.51-8.95-6.67-12.95-10.59-.45-.44-.45-1.34-.62-2.04-.65-2.73-1.25-5.48-1.95-8.2-.12-.47-.67-.82-1.02-1.23-.28,.48-.79,.96-.81,1.45-.08,2.61-.04,5.22-.04,7.84Zm76.25-123.8c.07-.17,.13-.34,.2-.51,.75,0,1.62,.25,2.21-.05,1.33-.67,2.51-1.62,3.76-2.45-1.05-.48-2.1-.95-3.15-1.43-.63-.29-1.23-.71-1.89-.89-2.69-.74-5.46-2.17-8.08-1.93-4.79,.43-9.5,1.82-14.22,2.91-.68,.16-1.82,.98-1.75,1.3,.21,1.08,.72,2.18,1.41,3.05,.34,.44,1.35,.63,1.98,.51,4.29-.81,8.55-1.75,12.84-2.59,.58-.11,1.26,.02,1.83,.22,1.64,.58,3.25,1.24,4.87,1.87Zm50.53,1.89c-3.6,.84-7.19,1.62-10.74,2.56-.51,.13-1.18,1.06-1.12,1.55,.08,.68,.81,1.88,1.18,1.85,2.67-.23,5.31-.79,7.97-1.1,1.39-.16,2.92-.34,4.21,.06,2.11,.66,4.05,1.83,6.12,2.65,.3,.12,1.22-.39,1.27-.71,.34-1.9,2.89-4.43-1.36-5.19-2.45-.44-4.87-1.08-7.54-1.68Zm-59.17-.8c-2.72,.5-5.8,.65-8.5,1.74-1.2,.48-1.65,2.84-2.44,4.35,1.71,.1,3.87,.92,5.04,.17,3.53-2.26,6.82-3.81,10.7-1.01,.67,.48,1.26,1.13,2,1.46,3.67,1.66,2.44-2.79,4.22-3.55,.03-.01-.3-1.54-.6-1.59-3.41-.6-6.85-1.06-10.41-1.57Zm123.07,117.73c0-4.74-.1-5.03-4.31-4.61-4.02,.4-8,1.25-11.98,2.01-.16,.03-.32,1.72-.08,1.84,2.48,1.28,4.98,2.55,7.6,3.48,1.34,.48,3.07-.1,4.38,.41,4.42,1.72,4.38,1.82,4.38-3.14Zm-49.2-133.87c-.57-1.59-.63-2.51-.99-2.65-2.08-.8-4.22-1.93-6.37-2-6.52-.2-13.11-.7-19.46,1.62-1.23,.45-3.25-.57-3.12,1.96,.13,2.65,2.21,2.07,3.61,1.84,2.56-.41,5.37-.71,7.52-1.98,5.63-3.32,10.2-.47,15.08,1.66,.91,.39,2.26-.24,3.73-.45Zm-71.22-6.81c-5.04,.77-9.73,1.42-14.39,2.25-.7,.13-1.48,.95-1.82,1.65-.21,.43,.48,1.8,.54,1.78,1.82-.43,3.66-1.55,5.4-1.41,6.54,.54,13.27-1.9,19.67,1.27,.67,.33,1.89-.46,2.86-.73-.4-.88-.64-2.39-1.23-2.54-3.73-.94-7.55-1.59-11.05-2.28Zm-.17-7.34c-.14,.21-.29,.42-.43,.63-1.35,.14-2.75,.1-4.03,.46-3.47,.98-6.9,2.13-10.33,3.23-.65,.21-1.26,.53-1.88,.8,.63,.38,1.32,1.15,1.89,1.08,2.71-.36,5.4-1.42,8.07-1.36,4.31,.1,8.84-1.56,12.93,1.24,.53,.36,1.47,.27,2.18,.15,.76-.13,1.46-.54,2.19-.83-.66-.37-1.3-.77-1.98-1.09-1.03-.48-2.12-.84-3.14-1.36-1.84-.94-3.65-1.97-5.47-2.96Zm55.39,38.65c-.09-.25-.19-.51-.28-.76-2.03,.85-4.08,1.65-6.05,2.61-.18,.09-.07,1.59,.22,1.72,3.48,1.56,6.98,3.92,10.64,.28,.59-.59,1.43-.93,2.15-1.38-.98-.82-1.85-1.96-2.99-2.38-1.09-.41-2.45-.09-3.7-.09Zm-57.85,4.32c.06-.21,.12-.42,.17-.62,1.49,0,3.07,.29,4.45-.12,.74-.22,1.13-1.63,1.68-2.5-2.1-.91-4.15-2.31-6.33-2.56-1.85-.21-3.85,.91-5.78,1.47-.56,.16-1.07,.46-1.61,.7,.35,.56,.58,1.43,1.07,1.61,2.07,.78,4.23,1.36,6.35,2.02Zm59.07-46.23c-2.65,.66-4.77,1.06-6.78,1.76-.6,.21-.9,1.26-1.34,1.92,.9,.17,1.83,.6,2.68,.47,2.33-.35,4.62-1.24,6.95-1.32,1.54-.06,3.09,1.04,4.68,1.33,.84,.15,1.79-.31,2.69-.5-.59-.43-1.11-1.02-1.77-1.26-2.43-.89-4.91-1.67-7.12-2.41Zm5.77-1.73c.06-.4,.12-.8,.18-1.19-.75-.51-1.47-1.41-2.25-1.46-2.84-.17-5.73-.34-8.52,.07-1.24,.18-2.28,1.74-3.41,2.67,1.35,.28,2.69,.6,4.05,.82,.3,.05,.72-.18,.98-.4,2.32-2,4.6-1.93,7.03-.14,.36,.26,1.27-.22,1.92-.36Zm-65.31-4.56c-.06-.16-.12-.33-.18-.49-2.2,.88-4.47,1.63-6.54,2.74-.43,.23-.16,1.78-.21,2.73,.61-.11,1.24-.15,1.81-.35,2.3-.79,4.6-1.6,6.87-2.48,.58-.23,1.03-.77,1.53-1.17-.47-.33-.9-.79-1.43-.94-.57-.16-1.23-.04-1.85-.04Zm12.19,9.64c-1.89-.94-3.39-1.69-4.92-2.39-.02,0-.58,1.03-.54,1.05,1.24,.81,2.5,1.63,3.84,2.27,.26,.13,.88-.48,1.62-.93Zm-10.53-4.91c-.73,.59-1.31,1.06-1.88,1.52,.53,.37,1.09,1.05,1.6,1.02,.67-.05,1.31-.65,1.96-1.02-.47-.43-.95-.86-1.68-1.52Zm5.53-1.75c-.72-.5-1.09-.96-1.39-.92-.32,.04-.64,.54-.81,.9-.05,.11,.4,.65,.62,.65,.38,0,.76-.28,1.58-.63Z"/>
</svg>