<?xml version="1.0" encoding="UTF-8"?>
<svg id="Layer_1" data-name="Layer 1" xmlns="http://www.w3.org/2000/svg" viewBox="0 0 53.1 43">
  <defs>
    <style>
      .cls-1 {
        fill: #1e1e1e;
      }
    </style>
  </defs>
  <path class="cls-1" d="M48.33,37.37c-1.13,1.18-3.89,2.67-5.44,3.32-6.92,2.9-21.67,2.78-29.1,1.27-1.76-.36-7.26-1.98-8.75-2.77-.94-.5-2.48-1.86-2.89-2.87-.73-1.83-1-5.12-1.29-7.11C-.11,22.57-1.43,11.02,4.25,6.13,11.78-.37,34.39-1.25,43.57,1.38c11.18,3.21,10.4,18.46,8.19,27.52-.57,2.32-1.83,6.79-3.42,8.46ZM48.09,5.14C42.81.18,29.7.86,22.86,1.45S4.53,3.84,2.22,11.29c-1.75,5.63-.94,18.25.76,23.96.46,1.54,1.33,2.54,2.96,2.92-.31-6.72-2.05-13.46-.61-20.17,1.86-8.67,13.39-10.6,20.77-11.38,5.88-.63,17.2-.31,20.12,6.03,2.43,5.27,2.03,14.66,1.47,20.36-.11,1.15-.74,2.33-.36,3.48,2.21-2.65,3.27-7.11,3.9-10.5,1.06-5.79,1.53-16.47-3.14-20.85ZM44.34,38.65c.74-.44,1.61-.7,1.9-1.57,1.6-4.71,1.39-14.44.42-19.36-.91-4.63-1.64-6.96-6.29-8.83-7.84-3.16-24.93-1.55-31.37,4.09-5.41,4.73-3.21,14.56-2.59,20.76.16,1.61-.1,3.29.27,4.89l1.65.5-.73-10.91c0-3.62-.1-7.64,1.56-10.94,3.98-7.9,21.04-8.86,28.5-6.64,8.8,2.61,7.16,11.95,7.4,19.26l-.73,8.75ZM23.31,11.62c-3.31,5,4.87,6,6.97,2.29,2.75-4.89-2.91-3.39-5.68-3.29-.34.07-1.11.74-1.28,1ZM32.3,10.61l-.92-.04c1.11,2.12-.89,5.05-2.99,5.77-2.97,1.02-7.91.54-6.38-3.74.09-.27,1.27-1.77.38-1.54-2.24,1.2-2.28,5.29.22,6.25,3.81,1.47,10.1-.18,10.23-4.95,0-.35-.34-1.64-.53-1.75ZM44.34,26.65h-3.96c-.12,0-1.54-.51-1.78-.62-2-1.01-2.36-3.33-2.42-5.38.92.29,1.6,1.5,2.53,1.67,1.59.29,3.89-.03,5.35-.75.46-7.05-4.32-10.29-10.76-11,1.39,5.98-5.55,9.17-10.56,7.56-1.31-.42-1.97-1.08-2.45-2.35-.67-1.77-.42-2.56.28-4.24-.12-.11-2.8.43-3.18.54-1.53.45-5.35,2.72-6.42,3.9-1.6,1.75-2.88,5.41-2.17,7.69,2.66,1.09,6.74-.14,7.69-3.01,1.47.01-.28,3.56-.67,4.25-1.54,2.73-4.52,3.99-7.49,2.71l.75,11.73c2.14.65,4.56,1.6,6.81,1.71,3.15.15,2.21-1.6,4.31-2.65,1.09-.54,1.85-.29,2.84-.52.83-.2,2.09-1.3,2.54-2.02.64-1.05.6-3.39,2.38-2.54,1.12.54.84,2.99,1.6,3.68.7.63,2.61.26,3.6.49,1.95.44,3.02,2.14,4.15,3.58l6.07-1.86c.72-4.14,1.14-8.32.96-12.54ZM44.34,22.57c-2.49.4-4.8.92-7.2-.24.17,1.61,1.46,3.6,3.24,3.6h3.96v-3.36ZM8.38,26.85c3.71,1.74,6.93-.47,7.64-4.28-2.23,1.73-4.89,2.78-7.68,1.68l.04,2.6ZM36.18,41.29c-.37-1.33-1.98-2.74-3.29-3.06-1.88-.46-3.67.57-4.51-1.97-.28-.84.02-1.8-.95-2.4-.68.4-.53,1.19-.87,1.76-.75,1.27-2.09,2.51-3.51,2.97-.89.29-2.1.15-2.64.37-.19.08-1.68,1.89-1.74,2.21-.09.48.06.32.36.36,5.74.53,11.43-.04,17.16-.24Z"/>
</svg>